<svg width="25" height="25" viewBox="0 0 25 25" fill="none" xmlns="http://www.w3.org/2000/svg">
<mask id="mask0_38112_7992" style="mask-type:alpha" maskUnits="userSpaceOnUse" x="0" y="0" width="25" height="25">
<rect x="0.682129" y="0.396729" width="24" height="24" fill="#D9D9D9"/>
</mask>
<g mask="url(#mask0_38112_7992)">
<path d="M11.9821 14.6967L9.38213 12.0967C9.06546 11.7801 8.99463 11.4176 9.16963 11.0092C9.34463 10.6009 9.65713 10.3967 10.1071 10.3967H15.2571C15.7071 10.3967 16.0196 10.6009 16.1946 11.0092C16.3696 11.4176 16.2988 11.7801 15.9821 12.0967L13.3821 14.6967C13.2821 14.7967 13.1738 14.8717 13.0571 14.9217C12.9405 14.9717 12.8155 14.9967 12.6821 14.9967C12.5488 14.9967 12.4238 14.9717 12.3071 14.9217C12.1905 14.8717 12.0821 14.7967 11.9821 14.6967Z" fill="#4589FF"/>
</g>
</svg>
