<svg width="8" height="5" viewBox="0 0 8 5" fill="none" xmlns="http://www.w3.org/2000/svg">
<path d="M4.69954 0.299975L7.29954 2.89998C7.6162 3.21664 7.68704 3.57914 7.51204 3.98748C7.33704 4.39581 7.02454 4.59998 6.57454 4.59998L1.42454 4.59998C0.974536 4.59998 0.662037 4.39581 0.487037 3.98748C0.312037 3.57914 0.38287 3.21664 0.699537 2.89998L3.29954 0.299975C3.39954 0.199975 3.50787 0.124976 3.62454 0.0749755C3.7412 0.0249753 3.8662 -2.43187e-05 3.99954 -2.43187e-05C4.13287 -2.43187e-05 4.25787 0.0249753 4.37454 0.0749755C4.4912 0.124976 4.59954 0.199975 4.69954 0.299975Z" fill="#4589FF"/>
</svg>
