<svg width="16" height="13" viewBox="0 0 16 13" fill="none" xmlns="http://www.w3.org/2000/svg">
<path d="M5.54996 9.65L14.025 1.175C14.225 0.975 14.4625 0.875 14.7375 0.875C15.0125 0.875 15.25 0.975 15.45 1.175C15.65 1.375 15.75 1.6125 15.75 1.8875C15.75 2.1625 15.65 2.4 15.45 2.6L6.24996 11.8C6.04996 12 5.81663 12.1 5.54996 12.1C5.2833 12.1 5.04996 12 4.84996 11.8L0.549963 7.5C0.349963 7.3 0.25413 7.0625 0.262463 6.7875C0.270796 6.5125 0.374963 6.275 0.574963 6.075C0.774963 5.875 1.01246 5.775 1.28746 5.775C1.56246 5.775 1.79996 5.875 1.99996 6.075L5.54996 9.65Z" fill="white"/>
</svg>
