
<svg width="32" height="32" viewBox="0 0 32 32" fill="none" xmlns="http://www.w3.org/2000/svg">
<mask id="mask0_19024_6446" style="mask-type:alpha" maskUnits="userSpaceOnUse" x="4" y="4" width="24" height="24">
<rect x="4" y="4" width="24" height="24" fill="#D9D9D9"/>
</mask>
<g mask="url(#mask0_19024_6446)">
<path d="M16 17.8642L9.46667 24.389C9.22223 24.6331 8.91112 24.7552 8.53334 24.7552C8.15556 24.7552 7.84445 24.6331 7.6 24.389C7.35556 24.1449 7.23334 23.8342 7.23334 23.4569C7.23334 23.0796 7.35556 22.7689 7.6 22.5248L14.1333 16L7.6 9.47527C7.35556 9.23115 7.23334 8.92045 7.23334 8.54316C7.23334 8.16588 7.35556 7.85518 7.6 7.61106C7.84445 7.36693 8.15556 7.24487 8.53334 7.24487C8.91112 7.24487 9.22223 7.36693 9.46667 7.61106L16 14.1358L22.5333 7.61106C22.7778 7.36693 23.0889 7.24487 23.4667 7.24487C23.8444 7.24487 24.1556 7.36693 24.4 7.61106C24.6444 7.85518 24.7667 8.16588 24.7667 8.54316C24.7667 8.92045 24.6444 9.23115 24.4 9.47527L17.8667 16L24.4 22.5248C24.6444 22.7689 24.7667 23.0796 24.7667 23.4569C24.7667 23.8342 24.6444 24.1449 24.4 24.389C24.1556 24.6331 23.8444 24.7552 23.4667 24.7552C23.0889 24.7552 22.7778 24.6331 22.5333 24.389L16 17.8642Z" fill="white"/>
</g>
</svg>
