<svg width="32" height="32" viewBox="0 0 32 32" fill="none" xmlns="http://www.w3.org/2000/svg">
<mask id="mask0_18846_6074" style="mask-type:alpha" maskUnits="userSpaceOnUse" x="0" y="0" width="32" height="32">
<rect width="32" height="32" fill="#D9D9D9"/>
</mask>
<g mask="url(#mask0_18846_6074)">
<path d="M25.3291 18.6667C25.0132 18.6667 24.7497 18.5602 24.5386 18.3473C24.3275 18.1343 24.2219 17.8704 24.2219 17.5556V14.4445H21.1108C20.796 14.4445 20.5321 14.3376 20.3191 14.1239C20.1062 13.9102 19.9997 13.6454 19.9997 13.3295C19.9997 13.0136 20.1062 12.7501 20.3191 12.5389C20.5321 12.3278 20.796 12.2223 21.1108 12.2223H24.2219V9.11115C24.2219 8.79635 24.3288 8.53246 24.5425 8.31948C24.7562 8.10653 25.021 8.00005 25.3369 8.00005C25.6528 8.00005 25.9163 8.10653 26.1274 8.31948C26.3386 8.53246 26.4441 8.79635 26.4441 9.11115V12.2223H29.5552C29.87 12.2223 30.1339 12.3291 30.3469 12.5428C30.5599 12.7566 30.6663 13.0214 30.6663 13.3373C30.6663 13.6532 30.5599 13.9167 30.3469 14.1278C30.1339 14.3389 29.87 14.4445 29.5552 14.4445H26.4441V17.5556C26.4441 17.8704 26.3373 18.1343 26.1235 18.3473C25.9098 18.5602 25.645 18.6667 25.3291 18.6667ZM11.9997 15.9778C10.533 15.9778 9.31449 15.4926 8.34411 14.5223C7.37375 13.5519 6.88858 12.3334 6.88858 10.8667C6.88858 9.40005 7.37375 8.18154 8.34411 7.21118C9.31449 6.2408 10.533 5.75562 11.9997 5.75562C13.4663 5.75562 14.6849 6.2408 15.6552 7.21118C16.6256 8.18154 17.1108 9.40005 17.1108 10.8667C17.1108 12.3334 16.6256 13.5519 15.6552 14.5223C14.6849 15.4926 13.4663 15.9778 11.9997 15.9778ZM2.44411 26.6667C2.12931 26.6667 1.86542 26.5602 1.65244 26.3473C1.43949 26.1343 1.33301 25.8704 1.33301 25.5556V23.3334C1.33301 22.563 1.53115 21.8612 1.92744 21.2279C2.32375 20.5945 2.86635 20.1186 3.55524 19.8C5.12562 19.0815 6.57998 18.5649 7.91831 18.25C9.25666 17.9352 10.6159 17.7779 11.9961 17.7779C13.3763 17.7779 14.7367 17.9352 16.0774 18.25C17.4182 18.5649 18.8663 19.0815 20.4219 19.8C21.1108 20.1334 21.6571 20.613 22.0608 21.2389C22.4645 21.8649 22.6663 22.563 22.6663 23.3334V25.5556C22.6663 25.8704 22.5599 26.1343 22.3469 26.3473C22.1339 26.5602 21.87 26.6667 21.5552 26.6667H2.44411ZM3.55521 24.4445H20.4441V23.3334C20.4441 23.0149 20.3645 22.7149 20.2052 22.4334C20.046 22.1519 19.8071 21.9408 19.4886 21.8C18.0515 21.0963 16.7626 20.6204 15.6219 20.3723C14.4812 20.1241 13.2737 20 11.9997 20C10.7256 20 9.5182 20.1278 8.37744 20.3834C7.23671 20.6389 5.94042 21.1112 4.48857 21.8C4.19966 21.9408 3.97187 22.1519 3.80521 22.4334C3.63854 22.7149 3.55521 23.0149 3.55521 23.3334V24.4445ZM11.9997 13.7556C12.8219 13.7556 13.5089 13.4797 14.0608 12.9278C14.6126 12.376 14.8886 11.6889 14.8886 10.8667C14.8886 10.0445 14.6126 9.35746 14.0608 8.80562C13.5089 8.25375 12.8219 7.97782 11.9997 7.97782C11.1775 7.97782 10.4904 8.25375 9.93857 8.80562C9.38671 9.35746 9.11077 10.0445 9.11077 10.8667C9.11077 11.6889 9.38671 12.376 9.93857 12.9278C10.4904 13.4797 11.1775 13.7556 11.9997 13.7556Z" fill="white"/>
</g>
</svg>
