<svg width="19" height="19" viewBox="0 0 19 19" fill="none" xmlns="http://www.w3.org/2000/svg">
<path d="M18.9996 0.100098V1.7901C19.0013 2.41806 18.8784 3.04012 18.6381 3.62029C18.3978 4.20046 18.0448 4.72722 17.5996 5.1701L5.16961 17.6001C4.72673 18.0453 4.19997 18.3983 3.6198 18.6386C3.03963 18.8789 2.41757 19.0017 1.78961 19.0001H0.0996094L18.9996 0.100098Z" fill="#D1D1D1"/>
<path d="M18.9997 6.41016V8.10016C19.0002 8.72796 18.8768 9.3497 18.6366 9.92971C18.3964 10.5097 18.044 11.0366 17.5997 11.4802L11.4797 17.6002C11.0361 18.0445 10.5092 18.3968 9.92922 18.6371C9.34921 18.8773 8.72747 19.0007 8.09967 19.0002H6.40967L18.9997 6.41016Z" fill="#D1D1D1"/>
<path d="M18.9997 12.53V14.22C19.0002 14.8478 18.8768 15.4696 18.6366 16.0496C18.3963 16.6296 18.044 17.1565 17.5997 17.6C17.1561 18.0443 16.6292 18.3967 16.0492 18.637C15.4692 18.8772 14.8475 19.0006 14.2197 19H12.5297L18.9997 12.53Z" fill="#D1D1D1"/>
</svg>
